# xmcd CD database file
#
# Track frame offsets:
#	150
#	15887
#	34917
#	58083
#	73095
#	94688
#	119074
#	136776
#	153269
#	170399
#	193371
#	218120
#	236974
#	254846
#
# Disc length: 3660 seconds
#
# Revision: 5
# Processed by: cddbd v1.5.1PL2 Copyright (c) Steve Scherf et al.
# Submitted via: CDex 1.51
#
DISCID=cf0e4a0e
DTITLE=BoA - OUTGROW
DYEAR=2006
DGENRE=ポップ
TTITLE0=Silent Screamerz
TTITLE1=DO THE MOTION
TTITLE2=キミのとなりで
TTITLE3=OUTGROW 〜Ready butterfly〜
TTITLE4=make a secret
TTITLE5=Everlasting
TTITLE6=LONG TIME NO SEE
TTITLE7=cosmic eyes
TTITLE8=抱きしめる
TTITLE9=Love is just what you can't see
TTITLE10=Stay My Gold
TTITLE11=soundscape
TTITLE12=With U
TTITLE13=First snow
EXTD=YEAR: 2006
EXTT0=
EXTT1=
EXTT2=
EXTT3=
EXTT4=
EXTT5=
EXTT6=
EXTT7=
EXTT8=
EXTT9=
EXTT10=
EXTT11=
EXTT12=
EXTT13=
PLAYORDER=
